<svg width="104" height="62" viewBox="0 0 104 62" fill="none" xmlns="http://www.w3.org/2000/svg">
<g clip-path="url(#clip0_101_16352)">
<path d="M81.173 56.5795C79.5129 56.5795 78.8806 55.4585 78.8806 54.1221C78.8806 52.8893 79.5129 51.6205 81.1887 51.6205C82.5574 51.6205 83.5586 52.5747 83.5586 53.8604V54.1411C83.5586 55.6041 82.5093 56.5795 81.173 56.5795ZM17.4881 47.7487C17.4881 47.6642 17.4447 47.6157 17.351 47.6157H16.7521C16.6572 47.6157 16.6121 47.6642 16.6121 47.7487V53.6281C16.6121 56.1193 17.6722 57.3712 19.7331 57.3712C20.9658 57.3712 21.5808 56.8919 22.243 56.1488C22.2557 56.134 22.2711 56.1193 22.3061 56.1193C22.3495 56.1193 22.3644 56.1488 22.3644 56.1974V57.122C22.3644 57.2044 22.4126 57.2529 22.5056 57.2529H23.0713C23.1639 57.2529 23.2108 57.2044 23.2108 57.122V47.7487C23.2108 47.6642 23.1639 47.6157 23.0713 47.6157H22.4725C22.3799 47.6157 22.3342 47.6642 22.3342 47.7487V53.9089C22.3342 55.3424 21.3955 56.5647 19.8112 56.5647C18.1358 56.5647 17.4881 55.4923 17.4881 53.6112V47.7487ZM15.2747 47.565C15.3504 47.565 15.4004 47.6157 15.4004 47.7149V48.3251C15.4004 48.4221 15.3504 48.4749 15.2747 48.4749H15.0901C13.4589 48.4749 12.5034 49.7057 12.5034 51.2236V57.122C12.5034 57.2044 12.4608 57.2529 12.3685 57.2529H11.7685C11.6751 57.2529 11.6282 57.2044 11.6282 57.122V47.7487C11.6282 47.6642 11.6751 47.6157 11.7685 47.6157H12.335C12.4269 47.6157 12.4738 47.6642 12.4738 47.7487V48.8824C12.4738 48.9351 12.49 48.9647 12.5349 48.9647C12.5664 48.9647 12.5814 48.9499 12.5972 48.9351C13.306 48.0294 13.9663 47.565 15.197 47.565H15.2747ZM92.7543 45.0634C92.7543 44.9789 92.709 44.9303 92.6164 44.9303H92.0164C91.9218 44.9303 91.8793 44.9789 91.8793 45.0634V46.2477C91.8793 46.3279 91.9218 46.3786 92.0164 46.3786H92.6164C92.709 46.3786 92.7543 46.3279 92.7543 46.2477V45.0634ZM92.7543 47.7487C92.7543 47.6642 92.709 47.6157 92.6164 47.6157H92.0164C91.9218 47.6157 91.8793 47.6642 91.8793 47.7487V57.0904C91.8793 57.1685 91.9408 57.2213 92.0334 57.2213H92.6164C92.709 57.2213 92.7543 57.1685 92.7543 57.0904V47.7487ZM95.6933 51.2384C95.6933 49.3785 96.4624 48.306 98.185 48.306C99.8604 48.306 100.678 49.3785 100.678 51.2384V53.6281C100.678 55.4923 99.9097 56.5647 98.185 56.5647C96.5092 56.5647 95.6933 55.4923 95.6933 53.6281V51.2384ZM94.8161 53.6471C94.8161 56.0348 95.9243 57.3712 98.185 57.3712C100.31 57.3712 101.555 56.0834 101.555 53.6471V51.2236C101.555 48.7874 100.355 47.4996 98.185 47.4996C96.1075 47.4996 94.8161 48.7874 94.8161 51.2236V53.6471ZM90.3699 47.565C90.4463 47.565 90.496 47.6157 90.496 47.7149V48.3251C90.496 48.4221 90.4463 48.4749 90.3699 48.4749H90.1885C88.5565 48.4749 87.6025 49.7057 87.6025 51.2236V57.122C87.6025 57.2044 87.5552 57.2529 87.4633 57.2529H86.863C86.7715 57.2529 86.7249 57.2044 86.7249 57.122V47.7487C86.7249 47.6642 86.7715 47.6157 86.863 47.6157H87.433C87.5264 47.6157 87.5736 47.6642 87.5736 47.7487V48.8824C87.5736 48.9351 87.5856 48.9647 87.6321 48.9647C87.6632 48.9647 87.6789 48.9499 87.6939 48.9351C88.4008 48.0294 89.065 47.565 90.2957 47.565H90.3699ZM71.9283 51.4072C71.9283 49.5431 72.6509 48.2912 74.4209 48.2912C75.4518 48.2912 75.9907 48.6374 76.4642 49.579C76.4814 49.6086 76.543 49.693 76.6493 49.6255L77.1284 49.3615C77.221 49.3109 77.189 49.1969 77.1713 49.1652C76.6963 48.0442 75.8038 47.4996 74.3882 47.4996C72.3131 47.4996 71.0517 48.9499 71.0517 51.3925V53.4804C71.0517 56.0834 72.2989 57.3712 74.4209 57.3712C75.8815 57.3712 76.7258 56.7251 77.189 55.8047C77.2033 55.773 77.2328 55.6717 77.1429 55.6231L76.6786 55.3424C76.5891 55.2769 76.526 55.3234 76.4965 55.393C76.1271 56.134 75.4825 56.5795 74.4497 56.5795C72.6813 56.5795 71.9283 55.3234 71.9283 53.4635V51.4072ZM69.0656 45.0634C69.0656 44.9789 69.0203 44.9303 68.9264 44.9303H68.3277C68.2366 44.9303 68.1917 44.9789 68.1917 45.0634V46.2477C68.1917 46.3279 68.2366 46.3786 68.3277 46.3786H68.9264C69.0203 46.3786 69.0656 46.3279 69.0656 46.2477V45.0634ZM69.0656 47.7487C69.0656 47.6642 69.0203 47.6157 68.9264 47.6157H68.3277C68.2366 47.6157 68.1917 47.6642 68.1917 47.7487V57.0904C68.1917 57.1685 68.2523 57.2213 68.3442 57.2213H68.9264C69.0203 57.2213 69.0656 57.1685 69.0656 57.0904V47.7487ZM63.236 47.4657C63.236 47.5819 63.2049 47.6157 63.1131 47.6157H62.0376C61.945 47.6157 61.8969 47.6495 61.8969 47.7634V48.2764C61.8969 48.3904 61.945 48.4221 62.0376 48.4221H63.0972C63.1931 48.4221 63.2215 48.4538 63.2215 48.5699V54.7006C63.2215 56.1488 63.6361 57.3353 65.3908 57.3353C66.0369 57.3353 66.3428 57.2529 66.9144 57.0397C66.9606 57.0228 67.05 56.9743 67.0204 56.8434L66.8809 56.3325C66.8514 56.1974 66.7267 56.2333 66.6984 56.248C66.2541 56.4148 65.9146 56.5119 65.4677 56.5119C64.4672 56.5119 64.0977 55.9356 64.0977 54.519V48.5699C64.0977 48.4538 64.1293 48.4221 64.2207 48.4221H66.5143C66.6045 48.4221 66.6523 48.3904 66.6523 48.2764V47.7634C66.6523 47.6495 66.6045 47.6157 66.5143 47.6157H64.2207C64.1293 47.6157 64.0977 47.5819 64.0977 47.4657V45.0465C64.0977 44.9303 64.0363 44.8986 63.9283 44.9303L63.3902 45.0929C63.2833 45.1267 63.236 45.1626 63.236 45.2765V47.4657ZM8.30778 50.8921C8.30778 52.3784 7.32108 53.5627 5.79865 53.5627C4.39842 53.5627 3.39831 52.2939 3.39831 50.8921C3.39831 49.4102 4.33535 48.2764 5.86094 48.2764C7.26076 48.2764 8.30778 49.3785 8.30778 50.8921ZM8.56994 61.4899C8.65785 61.6187 8.75127 61.5385 8.79857 61.5047C9.84559 60.8123 10.2437 59.9066 10.2437 59.0474C10.2437 56.9405 8.45956 56.3473 6.38445 56.4148C5.70601 56.4296 4.72128 56.5436 4.12247 56.6449C3.61434 56.7251 3.53747 56.6935 3.52091 56.3958C3.4602 55.3571 4.29159 54.2889 5.42888 54.2889H5.76908C7.91989 54.2889 9.15218 52.7077 9.15218 50.8626C9.15218 50.3201 8.93616 49.6086 8.67519 49.1336C8.65785 49.0998 8.64366 49.064 8.64366 49.0343C8.64366 48.9836 8.65785 48.9351 8.7355 48.8655C8.92275 48.7029 9.42813 48.4538 9.95321 48.4538H10.0289C10.1062 48.4538 10.1519 48.4053 10.1519 48.306V47.7149C10.1519 47.6157 10.1062 47.565 10.0289 47.565H9.95321C9.18175 47.565 8.64366 47.9935 8.33617 48.2764C8.25851 48.3398 8.21515 48.3756 8.16745 48.3756C8.1363 48.3756 8.09097 48.3756 8.04407 48.3251C7.41294 47.7149 6.50507 47.4996 5.86094 47.4996C3.85953 47.4996 2.55273 49.0343 2.55273 50.8774C2.55273 52.1504 3.24536 53.2819 4.15362 53.8604C4.21235 53.9089 4.19816 53.9913 4.13784 54.025C3.07821 54.6351 2.53697 55.8364 2.81567 57.1052C2.89097 57.5042 3.12237 57.5485 3.8142 57.4493C4.38422 57.3712 5.10563 57.236 6.44318 57.2044C8.56994 57.1537 9.38201 57.8314 9.38201 59.1149C9.38201 59.6913 9.16717 60.2866 8.33617 60.8608C8.30778 60.8946 8.1978 60.9453 8.30778 61.1078L8.56994 61.4899ZM55.07 51.2384C55.07 49.3785 55.8351 48.306 57.5594 48.306C59.2379 48.306 60.0521 49.3785 60.0521 51.2384V53.6281C60.0521 55.4923 59.2826 56.5647 57.5594 56.5647C55.886 56.5647 55.07 55.4923 55.07 53.6281V51.2384ZM54.191 53.6471C54.191 56.0348 55.299 57.3712 57.5594 57.3712C59.6834 57.3712 60.9303 56.0834 60.9303 53.6471V51.2236C60.9303 48.7874 59.7295 47.4996 57.5594 47.4996C55.4843 47.4996 54.191 48.7874 54.191 51.2236V53.6471ZM26.2711 50.9618C26.2711 49.5262 27.2413 48.306 28.8725 48.306C30.5625 48.306 31.2866 49.3785 31.2866 51.2384V53.6281C31.2866 55.4923 30.5009 56.5647 28.8252 56.5647C27.2881 56.5647 26.2711 55.2453 26.2711 53.7949V50.9618ZM45.5632 57.122C45.5632 57.2044 45.6078 57.2529 45.7016 57.2529H46.2705C46.3612 57.2529 46.4084 57.2044 46.4084 57.122V56.267C46.4084 56.2185 46.4222 56.1826 46.4711 56.1826C46.5003 56.1826 46.5145 56.1974 46.5331 56.2185C47.0703 56.8581 47.9005 57.3712 48.9775 57.3712C51.0247 57.3712 52.2825 56.0834 52.2825 53.6471V51.2236C52.2825 48.7874 51.1465 47.4996 49.0852 47.4996C47.8529 47.4996 47.2083 47.9091 46.5468 48.6522C46.5331 48.667 46.5145 48.686 46.4841 48.686C46.4388 48.686 46.4222 48.6522 46.4222 48.6058V43.5792C46.4222 43.4948 46.3789 43.4462 46.2847 43.4462H45.7016C45.6078 43.4462 45.5632 43.4948 45.5632 43.5792V57.122ZM49.0066 48.306C50.6703 48.306 51.4074 49.3785 51.4074 51.2384V53.6281C51.4074 55.4923 50.6241 56.5647 48.9452 56.5647C47.3621 56.5647 46.3923 55.1946 46.3923 53.7949V50.9618C46.3923 49.5262 47.3479 48.306 49.0066 48.306ZM26.2411 47.7487C26.2411 47.6642 26.195 47.6157 26.1035 47.6157H25.5785C25.4882 47.6157 25.4424 47.6642 25.4424 47.7487V61.1078C25.4424 61.1923 25.4882 61.2387 25.5785 61.2387H26.1505C26.2411 61.2387 26.288 61.1923 26.288 61.1078V56.267C26.288 56.2185 26.3042 56.1826 26.3492 56.1826C26.3798 56.1826 26.3972 56.1974 26.4091 56.2185C26.9479 56.8581 27.7798 57.3712 28.8547 57.3712C30.9039 57.3712 32.1649 56.0834 32.1649 53.6471V51.2236C32.1649 48.7874 31.0264 47.4996 28.9509 47.4996C27.6725 47.4996 27.024 47.9809 26.3653 48.7218C26.3492 48.7346 26.3341 48.7535 26.3042 48.7535C26.2584 48.7535 26.2411 48.7218 26.2411 48.667V47.7487ZM34.9484 51.2384C34.9484 49.3785 35.7175 48.306 37.439 48.306C39.1164 48.306 39.9312 49.3785 39.9312 51.2384V53.6281C39.9312 55.4923 39.1637 56.5647 37.439 56.5647C35.7628 56.5647 34.9484 55.4923 34.9484 53.6281V51.2384ZM34.0713 53.6471C34.0713 56.0348 35.1794 57.3712 37.439 57.3712C39.5622 57.3712 40.8083 56.0834 40.8083 53.6471V51.2236C40.8083 48.7874 39.6091 47.4996 37.439 47.4996C35.3627 47.4996 34.0713 48.7874 34.0713 51.2236V53.6471ZM84.4338 50.8626C84.4338 48.9182 83.8196 47.6495 81.5435 47.4996C82.9252 46.7585 84.4654 45.6355 85.2175 44.829C85.3102 44.7318 85.2972 44.6516 85.2471 44.6009L84.9278 44.2547C84.8489 44.1725 84.7563 44.221 84.7243 44.2547C83.3576 45.6545 81.2952 47.1069 78.8057 48.0569C78.7265 48.0928 78.7107 48.1772 78.7427 48.2575L78.9267 48.7029C78.9575 48.7705 79.0182 48.8022 79.0804 48.7705C80.3723 48.192 81.2656 48.2575 81.3117 48.2575C83.1881 48.2575 83.5697 49.5262 83.5697 50.6789V51.7471C83.5697 51.8485 83.5417 51.8822 83.4949 51.8822C83.4653 51.8822 83.4333 51.8654 83.4022 51.8337C82.8026 51.2236 82.1876 50.8626 81.173 50.8626C79.097 50.8626 78.0662 52.3952 78.0662 54.1559C78.0662 56.02 79.1108 57.3353 81.0508 57.3353C82.2172 57.3353 82.8838 56.8244 83.481 56.134C83.4949 56.1193 83.5106 56.1003 83.5417 56.1003C83.589 56.1003 83.6033 56.134 83.6033 56.1826V57.122C83.6033 57.2044 83.6505 57.2529 83.74 57.2529H84.2971C84.3885 57.2529 84.4338 57.2044 84.4338 57.122V50.8626Z" fill="#6E6E6E"/>
<mask id="mask0_101_16352" style="mask-type:luminance" maskUnits="userSpaceOnUse" x="48" y="15" width="11" height="6">
<path d="M50.4396 20.7829C51.9021 18.8648 53.838 18.2707 55.6672 18.6528C56.4273 17.9815 57.3279 17.2138 58.4306 16.282C58.5067 16.2187 58.5796 16.1541 58.6557 16.0899C58.6494 16.0878 58.6494 16.0878 58.6478 16.0878C55.0192 14.2828 51.2123 15.2582 49.0326 17.7543C48.9361 17.8717 48.8368 17.9879 48.7429 18.1102C48.6353 18.2475 48.5198 18.3932 48.4004 18.5283C48.5305 18.6909 49.3354 19.6725 50.4065 20.8281C50.4163 20.8133 50.4297 20.7965 50.4396 20.7829Z" fill="white"/>
</mask>
<g mask="url(#mask0_101_16352)">
<path d="M50.4396 20.7829C51.9021 18.8648 53.838 18.2707 55.6672 18.6528C56.4273 17.9815 57.3279 17.2138 58.4306 16.282C58.5067 16.2187 58.5796 16.1541 58.6557 16.0899C58.6494 16.0878 58.6494 16.0878 58.6478 16.0878C55.0192 14.2828 51.2123 15.2582 49.0326 17.7543C48.9361 17.8717 48.8368 17.9879 48.7429 18.1102C48.6353 18.2475 48.5198 18.3932 48.4004 18.5283C48.5305 18.6909 49.3354 19.6725 50.4065 20.8281C50.4163 20.8133 50.4297 20.7965 50.4396 20.7829Z" fill="url(#paint0_linear_101_16352)"/>
</g>
<mask id="mask1_101_16352" style="mask-type:luminance" maskUnits="userSpaceOnUse" x="39" y="3" width="10" height="33">
<path d="M48.4115 18.5194C48.395 18.5384 48.4218 18.5067 48.4092 18.5258C45.604 14.7752 42.5378 8.6677 47.1071 3.34679C43.6806 6.42777 40.8171 11.5611 39.9076 16.1761C37.8456 26.6227 42.8969 32.639 47.3736 35.584C42.8547 31.5518 44.1691 24.0324 48.4115 18.5194Z" fill="white"/>
</mask>
<g mask="url(#mask1_101_16352)">
<path d="M48.4115 18.5194C48.395 18.5384 48.4218 18.5067 48.4092 18.5258C45.604 14.7752 42.5378 8.6677 47.1071 3.34679C43.6806 6.42777 40.8171 11.5611 39.9076 16.1761C37.8456 26.6227 42.8969 32.639 47.3736 35.584C42.8547 31.5518 44.1691 24.0324 48.4115 18.5194Z" fill="url(#paint1_linear_101_16352)"/>
</g>
<path d="M48.4096 18.5266L48.3681 18.5781C48.3823 18.5582 48.3954 18.5392 48.4119 18.5202C52.9453 12.7788 60.9612 6.17953 58.4973 2.40397C56.9198 -0.0069561 53.4104 -0.125208 51.3401 0.577805C51.2636 0.611635 51.1832 0.646229 51.1059 0.684277C49.6304 1.38221 48.285 2.252 47.1075 3.34759C42.5382 8.6685 45.6044 14.776 48.4096 18.5266Z" fill="#CCE310"/>
<mask id="mask2_101_16352" style="mask-type:luminance" maskUnits="userSpaceOnUse" x="49" y="16" width="16" height="22">
<path d="M58.6561 16.0904C58.58 16.1546 58.5071 16.2191 58.431 16.2825C57.3284 17.2143 56.4277 17.9819 55.6676 18.6533C65.6198 20.7052 64.3958 36.8283 53.4316 37.3793C51.9975 37.4553 50.5507 37.1323 49.6543 36.8051C49.7817 36.8579 49.969 36.9297 50.0809 36.9719C56.6945 39.3364 62.7263 35.7622 64.2362 29.7138C65.6509 24.0429 63.6286 18.5689 58.6561 16.0904Z" fill="white"/>
</mask>
<g mask="url(#mask2_101_16352)">
<path d="M58.6561 16.0904C58.58 16.1546 58.5071 16.2191 58.431 16.2825C57.3284 17.2143 56.4277 17.9819 55.6676 18.6533C65.6198 20.7052 64.3958 36.8283 53.4316 37.3793C51.9975 37.4553 50.5507 37.1323 49.6543 36.8051C49.7817 36.8579 49.969 36.9297 50.0809 36.9719C56.6945 39.3364 62.7263 35.7622 64.2362 29.7138C65.6509 24.0429 63.6286 18.5689 58.6561 16.0904Z" fill="url(#paint2_linear_101_16352)"/>
</g>
<mask id="mask3_101_16352" style="mask-type:luminance" maskUnits="userSpaceOnUse" x="49" y="-1" width="16" height="19">
<path d="M51.3392 0.577005C53.4095 -0.126007 56.9188 -0.00775528 58.4964 2.40318C60.8526 6.00774 53.6326 12.1966 49.0322 17.7539C51.2118 15.2578 55.0187 14.2824 58.6474 16.0874C58.649 16.0874 58.649 16.0874 58.6553 16.0895C71.8135 4.83605 60.2369 -3.41506 51.3392 0.577005Z" fill="white"/>
</mask>
<g mask="url(#mask3_101_16352)">
<path d="M51.3392 0.577005C53.4095 -0.126007 56.9188 -0.00775528 58.4964 2.40318C60.8526 6.00774 53.6326 12.1966 49.0322 17.7539C51.2118 15.2578 55.0187 14.2824 58.6474 16.0874C58.649 16.0874 58.649 16.0874 58.6553 16.0895C71.8135 4.83605 60.2369 -3.41506 51.3392 0.577005Z" fill="url(#paint3_linear_101_16352)"/>
</g>
<mask id="mask4_101_16352" style="mask-type:luminance" maskUnits="userSpaceOnUse" x="44" y="18" width="6" height="19">
<path d="M48.4327 27.2702C48.4276 27.2617 48.4221 27.2533 48.4205 27.2491C46.6513 23.889 46.9628 20.7721 48.4292 18.5428C48.4387 18.5555 48.4528 18.5724 48.4694 18.5922C48.4383 18.5512 48.4166 18.5259 48.4118 18.5239C48.4118 18.5239 48.4118 18.5239 48.4095 18.5259C48.4095 18.5259 48.4118 18.5239 48.4118 18.5196C48.4095 18.5239 48.4095 18.5239 48.4063 18.5259C44.1721 24.0325 42.8582 31.5393 47.3632 35.5737C47.4252 35.6158 47.4886 35.6602 47.5505 35.7046C47.8872 35.9199 48.594 36.3527 49.3185 36.663C49.3213 36.665 49.3213 36.665 49.324 36.665C45.6287 35.048 46.7444 30.4415 48.4327 27.2702ZM48.4063 18.5239V18.5259C48.4095 18.5239 48.4095 18.5196 48.4118 18.5196C48.4095 18.5196 48.4095 18.5239 48.4063 18.5239Z" fill="white"/>
</mask>
<g mask="url(#mask4_101_16352)">
<path d="M48.4327 27.2702C48.4276 27.2617 48.4221 27.2533 48.4205 27.2491C46.6513 23.889 46.9628 20.7721 48.4292 18.5428C48.4387 18.5555 48.4528 18.5724 48.4694 18.5922C48.4383 18.5512 48.4166 18.5259 48.4118 18.5239C48.4118 18.5239 48.4118 18.5239 48.4095 18.5259C48.4095 18.5259 48.4118 18.5239 48.4118 18.5196C48.4095 18.5239 48.4095 18.5239 48.4063 18.5259C44.1721 24.0325 42.8582 31.5393 47.3632 35.5737C47.4252 35.6158 47.4886 35.6602 47.5505 35.7046C47.8872 35.9199 48.594 36.3527 49.3185 36.663C49.3213 36.665 49.3213 36.665 49.324 36.665C45.6287 35.048 46.7444 30.4415 48.4327 27.2702ZM48.4063 18.5239V18.5259C48.4095 18.5239 48.4095 18.5196 48.4118 18.5196C48.4095 18.5196 48.4095 18.5239 48.4063 18.5239Z" fill="url(#paint4_linear_101_16352)"/>
</g>
<mask id="mask5_101_16352" style="mask-type:luminance" maskUnits="userSpaceOnUse" x="48" y="24" width="10" height="6">
<path d="M56.8427 26.5357C57.0122 25.9805 57.1182 25.1676 57.0969 24.6893C57.1371 25.2677 56.6338 27.8065 54.5642 28.4821C52.3535 29.205 50.0579 27.4696 49.5995 25.2943C49.1622 26.0227 48.7207 26.751 48.4326 27.2704C50.5866 30.3825 55.4393 30.8808 56.8427 26.5357Z" fill="white"/>
</mask>
<g mask="url(#mask5_101_16352)">
<path d="M56.8427 26.5357C57.0122 25.9805 57.1182 25.1676 57.0969 24.6893C57.1371 25.2677 56.6338 27.8065 54.5642 28.4821C52.3535 29.205 50.0579 27.4696 49.5995 25.2943C49.1622 26.0227 48.7207 26.751 48.4326 27.2704C50.5866 30.3825 55.4393 30.8808 56.8427 26.5357Z" fill="url(#paint5_linear_101_16352)"/>
</g>
<mask id="mask6_101_16352" style="mask-type:luminance" maskUnits="userSpaceOnUse" x="47" y="18" width="4" height="10">
<path d="M49.5982 25.2966C49.2426 23.7765 49.4909 22.0581 50.4068 20.8282C49.3731 19.7156 48.5985 18.7627 48.4274 18.5494C46.9621 20.7766 46.6511 23.8935 48.4203 27.2493C48.4219 27.2535 48.4274 27.262 48.4325 27.2705C48.7206 26.7511 49.1621 26.0249 49.5982 25.2966Z" fill="white"/>
</mask>
<g mask="url(#mask6_101_16352)">
<path d="M49.5982 25.2966C49.2426 23.7765 49.4909 22.0581 50.4068 20.8282C49.3731 19.7156 48.5985 18.7627 48.4274 18.5494C46.9621 20.7766 46.6511 23.8935 48.4203 27.2493C48.4219 27.2535 48.4274 27.262 48.4325 27.2705C48.7206 26.7511 49.1621 26.0249 49.5982 25.2966Z" fill="url(#paint6_linear_101_16352)"/>
</g>
<mask id="mask7_101_16352" style="mask-type:luminance" maskUnits="userSpaceOnUse" x="46" y="18" width="17" height="20">
<path d="M56.6301 18.9027C56.5581 18.8838 56.4855 18.8605 56.4106 18.8386C56.3554 18.8238 56.2978 18.8047 56.2399 18.7899C56.1768 18.7689 56.111 18.754 56.0495 18.7393C55.9233 18.7097 55.7972 18.6781 55.6671 18.6528L55.6143 18.6738C55.6143 18.6738 53.847 20.1981 52.2734 21.928C52.9892 21.3255 53.9468 21.075 54.8917 21.3474C55.7168 21.583 56.3609 22.1635 56.7378 22.9024C56.7635 22.9489 56.7839 22.9962 56.8036 23.0405C56.8162 23.0692 56.832 23.0946 56.8423 23.122C56.8694 23.1874 56.8911 23.2529 56.9192 23.3192C57.0599 23.7363 57.1281 24.186 57.1005 24.6462C57.1005 24.6978 57.1005 24.7518 57.0965 24.8046C57.1005 25.2923 56.9968 26.0227 56.8423 26.5357C55.4389 30.8808 50.5862 30.3825 48.4322 27.2704C46.7439 30.4416 45.6282 35.0482 49.3255 36.6695C49.4015 36.7054 49.5285 36.7518 49.6862 36.8131C50.585 37.136 52.014 37.4527 53.4312 37.3788C64.0287 36.8468 65.5267 21.7709 56.6301 18.9027Z" fill="white"/>
</mask>
<g mask="url(#mask7_101_16352)">
<path d="M56.6301 18.9027C56.5581 18.8838 56.4855 18.8605 56.4106 18.8386C56.3554 18.8238 56.2978 18.8047 56.2399 18.7899C56.1768 18.7689 56.111 18.754 56.0495 18.7393C55.9233 18.7097 55.7972 18.6781 55.6671 18.6528L55.6143 18.6738C55.6143 18.6738 53.847 20.1981 52.2734 21.928C52.9892 21.3255 53.9468 21.075 54.8917 21.3474C55.7168 21.583 56.3609 22.1635 56.7378 22.9024C56.7635 22.9489 56.7839 22.9962 56.8036 23.0405C56.8162 23.0692 56.832 23.0946 56.8423 23.122C56.8694 23.1874 56.8911 23.2529 56.9192 23.3192C57.0599 23.7363 57.1281 24.186 57.1005 24.6462C57.1005 24.6978 57.1005 24.7518 57.0965 24.8046C57.1005 25.2923 56.9968 26.0227 56.8423 26.5357C55.4389 30.8808 50.5862 30.3825 48.4322 27.2704C46.7439 30.4416 45.6282 35.0482 49.3255 36.6695C49.4015 36.7054 49.5285 36.7518 49.6862 36.8131C50.585 37.136 52.014 37.4527 53.4312 37.3788C64.0287 36.8468 65.5267 21.7709 56.6301 18.9027Z" fill="url(#paint7_linear_101_16352)"/>
</g>
<mask id="mask8_101_16352" style="mask-type:luminance" maskUnits="userSpaceOnUse" x="50" y="18" width="6" height="5">
<path d="M52.2815 21.9194C53.1811 20.9369 54.1425 19.9983 55.6669 18.6527C53.8377 18.2706 51.9018 18.8646 50.4394 20.7828C50.4295 20.7963 50.416 20.8131 50.4062 20.828C50.8536 21.3106 51.3519 21.8256 51.8754 22.3281C51.9999 22.1791 52.1364 22.041 52.2815 21.9194Z" fill="white"/>
</mask>
<g mask="url(#mask8_101_16352)">
<path d="M52.2815 21.9194C53.1811 20.9369 54.1425 19.9983 55.6669 18.6527C53.8377 18.2706 51.9018 18.8646 50.4394 20.7828C50.4295 20.7963 50.416 20.8131 50.4062 20.828C50.8536 21.3106 51.3519 21.8256 51.8754 22.3281C51.9999 22.1791 52.1364 22.041 52.2815 21.9194Z" fill="url(#paint8_linear_101_16352)"/>
</g>
<mask id="mask9_101_16352" style="mask-type:luminance" maskUnits="userSpaceOnUse" x="49" y="20" width="3" height="6">
<path d="M51.8799 22.3286C51.3482 21.8228 50.8467 21.3027 50.3973 20.8158C50.3981 20.82 50.404 20.8263 50.4068 20.8285C49.478 22.0458 49.2426 23.7768 49.5982 25.2969C50.1651 24.4524 51.1364 23.1688 51.7289 22.5271C51.7754 22.454 51.8263 22.392 51.8799 22.3286Z" fill="white"/>
</mask>
<g mask="url(#mask9_101_16352)">
<path d="M51.8799 22.3286C51.3482 21.8228 50.8467 21.3027 50.3973 20.8158C50.3981 20.82 50.404 20.8263 50.4068 20.8285C49.478 22.0458 49.2426 23.7768 49.5982 25.2969C50.1651 24.4524 51.1364 23.1688 51.7289 22.5271C51.7754 22.454 51.8263 22.392 51.8799 22.3286Z" fill="url(#paint9_linear_101_16352)"/>
</g>
<mask id="mask10_101_16352" style="mask-type:luminance" maskUnits="userSpaceOnUse" x="49" y="22" width="9" height="7">
<path d="M57.1029 24.4126C57.1056 24.6934 57.0733 24.9783 57.0051 25.2613C57.0024 25.2613 57.0024 25.2613 57.0024 25.2655C57.0024 25.2655 57.0024 25.2655 57.0024 25.2676C56.5778 26.9683 54.9434 27.9804 53.3539 27.5257C53.3516 27.5257 53.3516 27.5257 53.3516 27.5257C53.3516 27.5257 53.3516 27.5257 53.3484 27.5257C51.7559 27.0683 50.8101 25.3132 51.235 23.6103C51.334 23.205 51.5055 22.8453 51.7255 22.5286C51.1341 23.1704 50.1644 24.4518 49.5976 25.2963V25.2942C49.5976 25.2942 49.5976 25.2963 49.5947 25.2963C49.5947 25.2984 49.5976 25.2984 49.5976 25.2984C49.5976 25.2963 49.5988 25.2963 49.5988 25.2942C50.0571 27.4694 52.3527 29.2048 54.5634 28.4819C56.5253 27.8402 57.0772 25.5315 57.0961 24.798C57.1002 24.9657 57.0878 25.1633 57.0623 25.3787C57.1238 24.9362 57.1174 24.5911 57.1029 24.4126Z" fill="white"/>
</mask>
<g mask="url(#mask10_101_16352)">
<path d="M57.1029 24.4126C57.1056 24.6934 57.0733 24.9783 57.0051 25.2613C57.0024 25.2613 57.0024 25.2613 57.0024 25.2655C57.0024 25.2655 57.0024 25.2655 57.0024 25.2676C56.5778 26.9683 54.9434 27.9804 53.3539 27.5257C53.3516 27.5257 53.3516 27.5257 53.3516 27.5257C53.3516 27.5257 53.3516 27.5257 53.3484 27.5257C51.7559 27.0683 50.8101 25.3132 51.235 23.6103C51.334 23.205 51.5055 22.8453 51.7255 22.5286C51.1341 23.1704 50.1644 24.4518 49.5976 25.2963V25.2942C49.5976 25.2942 49.5976 25.2963 49.5947 25.2963C49.5947 25.2984 49.5976 25.2984 49.5976 25.2984C49.5976 25.2963 49.5988 25.2963 49.5988 25.2942C50.0571 27.4694 52.3527 29.2048 54.5634 28.4819C56.5253 27.8402 57.0772 25.5315 57.0961 24.798C57.1002 24.9657 57.0878 25.1633 57.0623 25.3787C57.1238 24.9362 57.1174 24.5911 57.1029 24.4126Z" fill="url(#paint10_linear_101_16352)"/>
</g>
</g>
<defs>
<linearGradient id="paint0_linear_101_16352" x1="49.0742" y1="16.4245" x2="57.666" y2="19.1775" gradientUnits="userSpaceOnUse">
<stop stop-color="#6380C9"/>
<stop offset="1" stop-color="#355298"/>
</linearGradient>
<linearGradient id="paint1_linear_101_16352" x1="39.6133" y1="16.6626" x2="52.149" y2="20.6794" gradientUnits="userSpaceOnUse">
<stop stop-color="#CCE310"/>
<stop offset="1" stop-color="#40B93C"/>
</linearGradient>
<linearGradient id="paint2_linear_101_16352" x1="50.4539" y1="16.361" x2="59.8433" y2="33.0823" gradientUnits="userSpaceOnUse">
<stop stop-color="#EE2C27"/>
<stop offset="1" stop-color="#F68712"/>
</linearGradient>
<linearGradient id="paint3_linear_101_16352" x1="56.6594" y1="6.72772" x2="62.3367" y2="-1.11796" gradientUnits="userSpaceOnUse">
<stop stop-color="#69B0E4"/>
<stop offset="1" stop-color="#3770AD"/>
</linearGradient>
<linearGradient id="paint4_linear_101_16352" x1="44.5487" y1="27.5926" x2="49.3241" y2="27.5926" gradientUnits="userSpaceOnUse">
<stop stop-color="#51ADE5"/>
<stop offset="1" stop-color="#3872C1"/>
</linearGradient>
<linearGradient id="paint5_linear_101_16352" x1="48.4325" y1="27.1947" x2="57.0997" y2="27.1947" gradientUnits="userSpaceOnUse">
<stop stop-color="#F14E1C"/>
<stop offset="1" stop-color="#EE242E"/>
</linearGradient>
<linearGradient id="paint6_linear_101_16352" x1="47.2079" y1="22.9099" x2="50.4069" y2="22.9099" gradientUnits="userSpaceOnUse">
<stop stop-color="#6380C9"/>
<stop offset="1" stop-color="#355298"/>
</linearGradient>
<linearGradient id="paint7_linear_101_16352" x1="57.0333" y1="23.0142" x2="51.7068" y2="37.18" gradientUnits="userSpaceOnUse">
<stop stop-color="#F68712"/>
<stop offset="1" stop-color="#F14624"/>
</linearGradient>
<linearGradient id="paint8_linear_101_16352" x1="52.9308" y1="25.321" x2="53.125" y2="16.4389" gradientUnits="userSpaceOnUse">
<stop stop-color="#D9521F"/>
<stop offset="1" stop-color="#1C61B6"/>
</linearGradient>
<linearGradient id="paint9_linear_101_16352" x1="50.6144" y1="25.4619" x2="50.8604" y2="14.208" gradientUnits="userSpaceOnUse">
<stop stop-color="#D9521F"/>
<stop offset="1" stop-color="#1C61B6"/>
</linearGradient>
<linearGradient id="paint10_linear_101_16352" x1="49.4129" y1="26.9322" x2="55.5909" y2="24.8769" gradientUnits="userSpaceOnUse">
<stop stop-color="#F68712"/>
<stop offset="0.692308" stop-color="#F14624"/>
<stop offset="1" stop-color="#F14624"/>
</linearGradient>
<clipPath id="clip0_101_16352">
<rect width="104" height="62" fill="white"/>
</clipPath>
</defs>
</svg>
